<mxfile host="app.diagrams.net" modified="2024-06-04T17:53:44.446Z" agent="Mozilla/5.0 (Macintosh; Intel Mac OS X 10_15_7) AppleWebKit/605.1.15 (KHTML, like Gecko) Version/16.1 Safari/605.1.15" version="24.4.13" etag="I0KlhDahpIbRY4Q4TSt0" type="github">
  <diagram name="Page-1" id="1597T5vPX0cpMTYzasEX">
    <mxGraphModel>
      <root>
        <mxCell id="0" />
        <mxCell id="1" parent="0" />
      </root>
    </mxGraphModel>
  </diagram>
</mxfile>
